<svg width="512" height="512" viewBox="0 0 512 512" fill="none" xmlns="http://www.w3.org/2000/svg">
<path d="M430.359 511.97C417.365 511.97 404.339 507.009 394.416 497.117L256.001 358.729L117.612 497.117C97.7395 516.958 65.5103 516.958 45.6638 497.117L14.8848 466.333C-4.96161 446.492 -4.96161 414.231 14.8848 394.384L153.268 256.001L14.8848 117.612C-4.96161 97.7395 -4.96161 65.4784 14.8848 45.6638L45.6638 14.8848C65.4784 -4.92974 97.7395 -4.96161 117.586 14.8848L256.001 153.268L394.384 14.8848C414.289 -4.96161 446.518 -4.96161 466.333 14.8848L497.117 45.6638C516.958 65.5103 516.958 97.7713 497.117 117.612L358.729 256.001L497.117 394.384C516.958 414.231 516.958 446.492 497.117 466.333L466.333 497.117C456.415 507.009 443.389 511.97 430.359 511.97V511.97ZM256.001 306.191C261.775 306.191 267.316 308.48 271.375 312.571L425.137 466.333C427.984 469.148 432.738 469.148 435.554 466.333L466.333 435.554C469.18 432.738 469.148 427.952 466.333 425.11L312.571 271.375C304.071 262.875 304.071 249.095 312.571 240.596L466.333 86.8335C469.148 84.018 469.18 79.2317 466.333 76.4162L435.554 45.6638C432.712 42.8483 427.984 42.8483 425.11 45.6638L271.375 199.426C263.226 207.58 248.776 207.58 240.596 199.426L86.8335 45.6638C83.9915 42.8483 79.2317 42.8483 76.4162 45.6638L45.6638 76.4481C42.8218 79.2583 42.8483 84.0446 45.6638 86.8919L199.426 240.622C207.925 249.122 207.925 262.907 199.426 271.406L45.6638 425.169C42.8483 427.984 42.8218 432.77 45.6638 435.581L76.4481 466.365C79.2901 469.18 84.018 469.18 86.8919 466.365L240.622 312.603C244.686 308.48 250.227 306.191 256.001 306.191V306.191Z" fill="#2B2121"/>
</svg>
