<?xml version="1.0" standalone="no"?>
<!DOCTYPE svg PUBLIC "-//W3C//DTD SVG 20010904//EN"
 "http://www.w3.org/TR/2001/REC-SVG-20010904/DTD/svg10.dtd">
<svg version="1.0" xmlns="http://www.w3.org/2000/svg"
 width="822.000000pt" height="822.000000pt" viewBox="0 0 822.000000 822.000000"
 preserveAspectRatio="xMidYMid meet">
<metadata>
Created by potrace 1.11, written by Peter Selinger 2001-2013
</metadata>
<g transform="translate(0.000000,822.000000) scale(0.100000,-0.100000)"
fill="#000000" stroke="none">
<path d="M2435 6134 c-14 -31 -25 -59 -25 -61 0 -3 -6 -19 -14 -36 -8 -18 -22
-54 -32 -82 -10 -27 -24 -61 -31 -75 -7 -14 -13 -33 -13 -42 0 -10 -5 -18 -12
-18 -6 0 -8 -3 -5 -6 3 -4 1 -16 -5 -28 -7 -11 -13 -23 -13 -26 -1 -8 -45
-123 -59 -155 -7 -16 -22 -52 -31 -80 -10 -27 -22 -54 -25 -60 -4 -5 -13 -28
-20 -50 -7 -22 -15 -44 -19 -50 -3 -5 -6 -12 -7 -15 0 -3 -4 -14 -9 -25 -32
-77 -154 -393 -157 -405 -2 -8 -5 -17 -8 -20 -3 -3 -21 -45 -40 -95 -18 -49
-39 -103 -46 -120 -7 -16 -47 -118 -89 -225 -42 -107 -80 -204 -85 -215 -5
-11 -30 -74 -56 -140 -25 -66 -51 -131 -57 -145 -5 -14 -11 -29 -12 -35 -2 -9
-56 -143 -76 -190 -9 -22 -155 -393 -214 -545 -20 -52 -43 -108 -50 -125 -28
-65 -105 -269 -105 -280 0 -6 -5 -16 -12 -23 -6 -6 -13 -17 -14 -24 -1 -7 -55
-146 -119 -308 -64 -162 -122 -312 -129 -332 -15 -42 -15 -42 49 -39 17 1 41
1 55 0 14 0 32 0 40 0 53 4 111 2 120 -4 5 -3 10 -1 10 5 0 6 5 8 11 4 6 -4
34 -6 63 -5 28 1 67 2 87 2 34 0 37 3 54 52 10 29 25 68 34 87 8 19 16 40 17
45 1 6 22 62 47 125 25 63 65 167 89 230 25 63 49 124 53 135 5 11 9 22 9 25
1 5 67 173 162 413 30 75 54 144 54 152 0 8 5 15 10 15 6 0 9 6 8 13 -2 9 168
12 824 13 l827 2 12 -32 c6 -17 13 -35 15 -41 1 -5 38 -100 82 -210 43 -110
127 -324 186 -475 59 -151 114 -288 121 -305 20 -48 67 -174 65 -177 -1 -2 5
-16 14 -32 8 -16 13 -33 10 -38 -6 -10 -23 -9 255 -9 123 0 227 3 232 8 5 5 5
22 1 38 -5 17 -8 938 -8 2048 l1 2017 -240 -2 -240 -3 0 -1397 c0 -769 -3
-1398 -7 -1398 -3 0 -14 23 -23 51 -10 28 -24 63 -31 78 -8 14 -14 33 -14 42
0 8 -4 19 -8 25 -5 5 -20 41 -35 79 -14 39 -32 84 -38 100 -7 17 -13 32 -14
35 -4 13 -18 47 -25 65 -5 11 -25 63 -45 115 -75 192 -166 426 -175 445 -8 19
-146 373 -197 505 -43 114 -75 194 -89 225 -7 17 -24 59 -38 95 -13 36 -50
130 -81 210 -31 80 -77 197 -101 260 -25 63 -49 124 -53 135 -5 11 -28 70 -51
130 -23 61 -50 128 -60 150 -9 22 -21 50 -24 63 -7 22 -9 22 -207 22 l-199 0
-25 -56z m229 -519 c3 -16 10 -41 15 -55 8 -21 43 -135 45 -150 5 -25 51 -157
58 -164 4 -6 8 -16 8 -24 0 -13 173 -485 211 -577 11 -27 109 -287 113 -300 2
-5 7 -19 11 -30 14 -36 52 -139 80 -215 15 -41 32 -86 38 -100 5 -14 13 -34
17 -45 44 -112 58 -150 56 -153 -2 -2 -1177 -5 -1288 -3 l-36 1 18 53 c10 29
48 129 85 222 36 94 68 177 70 185 2 8 12 36 24 63 11 26 20 48 20 50 0 1 4
13 9 27 15 39 113 300 132 350 10 25 34 90 55 145 21 55 42 111 48 125 6 14
11 30 13 35 2 6 24 71 50 145 25 74 47 140 48 145 1 6 10 37 20 70 10 33 20
67 22 75 2 8 12 47 23 87 10 40 18 74 16 76 -1 3 2 2 6 -2 4 -3 10 -19 13 -36z"/>
<path d="M7175 3030 c-20 -5 -20 -12 -20 -484 l0 -479 23 -8 c13 -5 22 -5 22
1 0 6 9 6 23 1 13 -5 29 -6 35 -2 9 5 11 134 9 491 l-2 483 -35 1 c-19 1 -44
-1 -55 -4z"/>
<path d="M4702 2745 c-23 -7 -49 -19 -57 -25 -8 -7 -15 -9 -15 -6 0 19 -60
-62 -67 -88 -27 -116 19 -176 191 -247 59 -24 124 -58 144 -75 31 -26 36 -37
35 -70 -1 -37 -6 -44 -58 -81 -34 -25 -166 -17 -250 13 -65 25 -69 24 -70 -21
-1 -51 8 -62 59 -77 61 -17 65 -18 141 -18 158 -1 236 35 275 126 21 47 19
107 -3 150 -28 53 -71 83 -187 126 -146 56 -190 96 -170 154 13 37 58 58 130
59 54 1 138 -17 173 -36 15 -8 21 -3 38 36 11 26 19 48 17 49 -1 2 -28 11 -58
21 -67 22 -209 27 -268 10z"/>
<path d="M5452 2744 c-38 -16 -109 -80 -117 -105 -9 -27 -20 -16 -23 23 -2 18
-4 42 -7 53 -2 11 -4 23 -4 27 -1 4 -20 6 -43 5 l-43 -3 -3 -343 c-2 -273 0
-342 10 -338 7 2 22 1 33 -3 11 -4 31 -4 45 -1 l24 7 1 214 c2 200 3 218 23
257 43 83 107 121 195 116 40 -2 57 1 58 10 0 6 3 30 5 52 l5 41 -65 0 c-35 1
-78 -5 -94 -12z"/>
<path d="M5890 2746 c-139 -45 -213 -168 -213 -351 0 -167 81 -292 215 -330
78 -22 181 -22 261 0 73 21 77 25 77 76 0 27 -1 49 -2 49 -2 0 -27 -9 -57 -20
-105 -40 -252 -29 -308 22 -21 20 -54 78 -60 108 -15 68 -5 97 27 80 9 -5 22
-5 29 -1 7 5 29 5 49 1 21 -3 48 -4 62 0 14 3 50 4 80 3 55 -3 101 -3 175 0
l40 2 -3 65 c-6 144 -52 229 -153 280 -51 27 -162 35 -219 16z m171 -100 c38
-18 76 -83 81 -141 l3 -30 -155 -3 c-161 -2 -205 2 -195 18 3 6 8 19 10 30 6
32 35 87 55 105 48 43 136 52 201 21z"/>
<path d="M6610 2749 c-79 -19 -140 -43 -140 -54 0 -7 7 -29 15 -50 12 -26 19
-34 28 -27 22 17 121 46 167 48 25 1 57 -5 72 -12 15 -8 31 -14 34 -13 15 2
42 -62 46 -110 5 -60 10 -58 -122 -64 -86 -4 -100 -7 -178 -28 -49 -14 -115
-70 -131 -112 -16 -41 -13 -129 4 -170 14 -35 59 -76 100 -92 92 -37 217 -16
283 46 23 21 44 39 47 39 3 0 10 -20 16 -45 11 -43 13 -45 49 -45 21 0 40 5
42 13 2 6 3 127 2 267 -2 312 -10 342 -107 392 -43 22 -168 31 -227 17z m216
-358 c16 -1 5 -111 -17 -156 -10 -22 -34 -50 -53 -62 -31 -20 -100 -40 -119
-35 -5 2 -21 4 -36 6 -31 3 -63 19 -79 39 -21 25 -21 83 -1 125 25 50 74 72
179 79 41 3 76 7 78 8 2 2 11 2 20 0 9 -2 22 -4 28 -4z"/>
</g>
</svg>
